<svg xmlns="http://www.w3.org/2000/svg" viewBox="0 0 24 24"><title>JavaScript</title><path fill="#f7df1e" d="M2 2h20v20H2z"/><path d="M12.6 18.1c.4.8 1.2 1.4 2.4 1.4 1 0 1.7-.5 1.7-1.2 0-.8-.7-1.1-1.8-1.6l-.6-.3c-1.7-.7-2.8-1.6-2.8-3.5 0-1.7 1.3-3 3.4-3 1.5 0 2.5.5 3.3 1.9l-1.8 1.1c-.4-.7-.8-1-1.5-1-.7 0-1.1.4-1.1 1 0 .7.4.9 1.5 1.4l.6.3c2 .9 3.1 1.8 3.1 3.7 0 2.1-1.7 3.3-3.9 3.3-2.2 0-3.6-1-4.3-2.5zM4.8 17.9c.4.7.7 1.3 1.5 1.3.8 0 1.2-.3 1.2-1.5V9.8h2.4v8c0 2.4-1.4 3.5-3.5 3.5-1.9 0-3-1-3.8-2.2z"/></svg>
